<svg xmlns="http://www.w3.org/2000/svg" width="130" height="130" viewBox="0 0 130 130" fill="none">
  <g clip-path="url(#clip0_1381_3112)">
    <path d="M65 129.949C100.885 129.949 129.975 100.859 129.975 64.9746C129.975 29.0901 100.885 0 65 0C29.1155 0 0.0253906 29.0901 0.0253906 64.9746C0.0253906 100.859 29.1155 129.949 65 129.949Z" fill="#83CF8F"/>
    <path d="M41.3965 77.2588C44.899 71.0152 50.4828 63.7563 44.8483 52.7411C33.63 12.4365 74.7975 6.75122 80.5843 22.538C89.9752 26.2944 89.7721 46.8527 84.899 57.6649C84.696 62.0812 81.1934 65.7868 89.1122 77.2081C68.1478 80.7106 55.965 79.5431 41.3965 77.2588Z" fill="#596366"/>
    <path d="M58.655 65.685C58.2996 72.5378 55.8631 74.6698 52.4621 76.4465C50.7362 77.9693 38.5535 78.883 34.0865 84.4668C30.2286 89.2891 27.1321 105.482 25.4062 116.548C29.0103 119.289 32.8682 121.675 36.9799 123.655L38.858 103.452C38.858 103.452 40.2286 113.452 41.4976 114.822C42.2083 115.634 42.4113 120.152 42.4621 124.568L47.8428 127.665C53.325 129.188 59.0611 129.949 65.0509 129.949C70.6854 129.949 76.1169 129.238 81.2946 127.919L87.0814 124.568C87.1321 120.203 87.0306 115.939 88.0458 114.822C89.0611 113.705 90.6854 103.452 90.6854 103.452L92.259 124.01C96.4722 122.081 100.432 119.695 104.086 116.954C102.817 106.294 100.584 90.4059 97.4367 85.0759C93.5788 78.5784 80.8885 77.9185 79.3149 76.5987C76.0154 74.7713 73.6296 72.4871 73.2743 65.6343C73.2743 65.6343 68.3504 69.4414 65.3047 68.883C62.259 68.2739 58.7565 65.6343 58.7565 65.6343L58.655 65.685Z" fill="#FFD190"/>
    <path d="M56.5738 73.1978C55.5078 74.6698 54.1373 75.6343 52.5129 76.4465C50.787 77.9693 38.6043 78.883 34.1373 84.4668C30.2794 89.2891 27.2337 105.533 25.5078 116.599C29.2642 119.492 33.3758 121.979 37.6906 124.01L38.8581 103.502C38.8581 103.502 40.5332 113.858 41.4977 114.873C42.2083 115.634 42.3098 121.167 42.3606 125.939C49.4164 128.578 57.0307 130 65.0002 130C72.7667 130 80.2286 128.629 87.1322 126.142C87.1829 121.37 87.2845 115.634 87.9951 114.873C88.9596 113.858 90.6347 103.502 90.6347 103.502L92.0053 124.162C96.523 122.081 100.736 119.543 104.645 116.548C103.173 105.99 100.482 90.4566 97.386 85.1775C93.5281 78.68 80.8378 78.0201 79.2642 76.7003C77.8428 75.8881 76.6246 75.0252 75.6093 73.7561L66.4723 91.2181L56.523 73.1978H56.5738Z" fill="#E4E7ED"/>
    <path d="M58.502 67.8174C60.2786 68.8834 63.2735 72.2337 66.1162 72.2844C68.908 72.3352 72.8674 68.1727 73.4258 67.8682C73.375 67.4621 73.3243 67.056 73.3243 66.6499L73.2735 66.7007C73.1212 66.8022 68.2989 70.6093 65.304 70.0002C62.3091 69.4418 58.9588 66.8529 58.7558 66.7007L58.705 66.6499C58.6542 67.056 58.6542 67.4621 58.6035 67.8174H58.502Z" fill="#F0B97D"/>
    <path d="M50.7359 54.7206C53.7816 61.2181 54.8984 63.7561 58.6547 66.7003C58.6547 66.7003 62.1572 69.3906 65.2029 69.9998C68.2486 70.6089 73.1725 66.7003 73.1725 66.7003C76.9288 63.7561 78.0963 61.2181 81.0913 54.7206C81.8527 55.1267 82.6141 55.6343 83.2232 54.9744C83.8324 54.2638 86.7258 45.279 86.1674 44.0607C85.6598 42.8424 84.5938 43.7054 84.3907 44.1622C84.2385 44.3653 84.0862 45.279 83.8831 45.279C83.6801 45.279 83.6293 44.8729 83.3248 44.0099C82.4618 41.5226 80.6344 38.9846 79.9745 30.7104C66.2182 44.3653 53.3248 38.1216 48.8577 39.0353C47.6902 39.2891 47.5887 42.1318 47.6902 43.8069C47.6902 44.0099 47.9948 44.7714 47.8933 44.8221C47.741 44.8221 47.2841 44.0607 47.1826 44.0099C42.7156 41.1165 48.4517 54.8221 48.5532 54.9744C49.1623 55.6851 49.9237 55.1267 50.6852 54.7206H50.7359Z" fill="#FFD190"/>
    <path d="M42.0553 125.787C42.0046 121.168 41.903 115.838 41.8523 115.381C38.502 111.726 38.5528 103.452 38.5528 103.452C38.5528 103.452 42.4106 98.9848 45.4056 93.3503C50.1771 92.7919 64.8472 93.2488 64.8472 93.2488C64.8472 93.2488 79.4665 92.7919 84.2888 93.3503C85.4056 97.1066 91.1416 103.452 91.1416 103.452C91.2939 104.67 90.1264 113.909 87.9944 115.025C87.8929 115.381 87.7914 121.117 87.6898 125.939C80.6848 128.528 73.0705 129.949 65.1518 129.949C57.0807 129.949 49.3142 128.477 42.1568 125.787H42.0553Z" fill="#5D718F"/>
    <path d="M51.4469 76.853L49.6703 100.965C49.6195 101.726 48.655 102.691 46.2185 102.64C43.7819 102.538 44.1373 100.508 44.1373 100.508L46.4723 78.3759L51.4977 76.9038L51.4469 76.853Z" fill="#6B7F9E"/>
    <path d="M81.1425 77.2085L81.041 100.66C81.041 101.422 82.0562 102.64 84.5436 102.538C86.9801 102.437 87.0816 100.254 87.0816 100.254L86.2694 78.5283L81.1425 77.1577V77.2085Z" fill="#6B7F9E"/>
    <path d="M46.7767 98.1221C47.6397 98.1221 48.3503 98.8327 48.3503 99.6957C48.3503 100.559 47.6397 101.269 46.7767 101.269C45.9138 101.269 45.2031 100.559 45.2031 99.6957C45.2031 98.8327 45.9138 98.1221 46.7767 98.1221Z" fill="#FFE356"/>
    <path d="M83.9857 98.1221C84.8487 98.1221 85.5593 98.8327 85.5593 99.6957C85.5593 100.559 84.8487 101.269 83.9857 101.269C83.1228 101.269 82.4121 100.559 82.4121 99.6957C82.4121 98.8327 83.1228 98.1221 83.9857 98.1221Z" fill="#FFE356"/>
    <path d="M56.4708 73.0454L62.2576 83.553C62.2576 83.553 56.5724 82.9946 55.4556 84.9743C54.3389 86.954 51.8008 89.3398 51.8008 89.3398L55.1003 74.7205L56.4708 73.0454Z" fill="white"/>
    <path d="M75.7596 73.2993L70.4297 83.6039C70.4297 83.6039 75.9119 82.944 77.0287 84.9237C78.1454 86.9034 80.5312 88.6293 80.5312 88.6293L77.4348 74.7206L75.7596 73.2993Z" fill="white"/>
    <path d="M87.8418 29.7969V45.9898H84.8468V29.7969C84.8468 22.741 79.8215 18.2233 73.4255 16.2436C70.8875 15.4314 68.0956 15.0761 65.3037 15.0761C62.5118 15.0761 59.7199 15.4821 57.1819 16.2436C50.7859 18.2233 45.7605 22.741 45.7605 29.7969V45.9898H42.7656V29.7969C42.7656 21.3705 48.654 15.9898 56.2174 13.604C59.1108 12.6903 62.2072 12.2842 65.3037 12.2842C68.4001 12.2842 71.4966 12.741 74.39 13.604C81.9534 15.939 87.8418 21.3197 87.8418 29.7969Z" fill="white"/>
    <path d="M46.3208 42.4873H44.8994C43.5796 42.4873 42.4629 43.6041 42.4629 44.9239V54.4162C42.4629 55.736 43.5796 56.8528 44.8994 56.8528H46.3208C47.6406 56.8528 48.7573 55.736 48.7573 54.4162V44.9239C48.7573 43.6041 47.6406 42.4873 46.3208 42.4873Z" fill="#6B7F9E"/>
    <path d="M45.2037 41.6753H42.2595C41.8534 41.6753 41.5488 42.0306 41.5488 42.386V56.9037C41.5488 57.3098 41.9042 57.6144 42.2595 57.6144H45.2037C45.6097 57.6144 45.9143 57.2591 45.9143 56.9037V42.386C45.9143 41.9799 45.559 41.6753 45.2037 41.6753Z" fill="#FFE356"/>
    <path d="M84.4424 42.4873H85.8637C87.1835 42.4873 88.3003 43.6041 88.3003 44.9239V54.4162C88.3003 55.736 87.1835 56.8528 85.8637 56.8528H84.4424C83.1226 56.8528 82.0059 55.736 82.0059 54.4162V44.9239C82.0059 43.6041 83.1226 42.4873 84.4424 42.4873Z" fill="#6B7F9E"/>
    <path d="M85.5583 41.6753H88.5025C88.9086 41.6753 89.2131 42.0306 89.2131 42.386V56.9037C89.2131 57.3098 88.8578 57.6144 88.5025 57.6144H85.5583C85.1522 57.6144 84.8477 57.2591 84.8477 56.9037V42.386C84.8477 41.9799 85.203 41.6753 85.5583 41.6753Z" fill="#FFE356"/>
    <path d="M61.3444 69.7462C59.1617 69.6955 57.0297 69.3909 55.05 68.7818C49.7201 67.1066 45.5576 63.3503 45.5576 57.5127V54.9239C45.6084 53.9594 43.4256 53.4518 43.0703 54.9239V57.5127C43.0703 64.5178 47.9942 69.0356 54.2886 70.9645C56.5221 71.6752 58.9586 72.0305 61.3952 72.0813V69.797L61.3444 69.7462Z" fill="white"/>
    <path d="M61.4468 67.208H67.5381C68.2488 67.208 68.8579 67.8171 68.8579 68.5278V72.6395C68.8579 73.3501 68.2488 73.9593 67.5381 73.9593H61.4468C60.7361 73.9593 60.127 73.3501 60.127 72.6395V68.5278C60.127 67.8171 60.7361 67.208 61.4468 67.208Z" fill="#596366"/>
    <path d="M60.4315 68.2231H68.5534C68.7056 68.2231 68.8579 68.3754 68.8579 68.5277V72.5886C68.8579 72.7409 68.7056 72.8932 68.5534 72.8932H60.4315C60.2792 72.8932 60.127 72.7409 60.127 72.5886V68.5277C60.127 68.3754 60.2792 68.2231 60.4315 68.2231Z" fill="#6C7678"/>
  </g>
  <defs>
    <clipPath id="clip0_1381_3112">
      <rect width="130" height="130" fill="white"/>
    </clipPath>
  </defs>
</svg>