<svg width="20" height="20" viewBox="0 0 20 20" fill="none" xmlns="http://www.w3.org/2000/svg">
<g id="edit-svgrepo-com (1) 1" clip-path="url(#clip0_1381_2801)">
<path id="Vector" fill-rule="evenodd" clip-rule="evenodd" d="M17.3732 1.56573C16.3969 0.58942 14.814 0.589417 13.8377 1.56573L2.0397 13.3637C1.6907 13.7127 1.4528 14.1572 1.35601 14.6412L0.866788 17.0873C0.633548 18.2535 1.66175 19.2817 2.82795 19.0485L5.27406 18.5592C5.75804 18.4625 6.20254 18.2246 6.55154 17.8756L18.3495 6.07757C19.3258 5.10126 19.3258 3.51835 18.3495 2.54204L17.3732 1.56573ZM15.0162 2.74424C15.3417 2.4188 15.8692 2.4188 16.1947 2.74424L17.171 3.72055C17.4965 4.04599 17.4965 4.57362 17.171 4.89906L14.9447 7.12539L12.7899 4.97056L15.0162 2.74424ZM11.6113 6.14908L3.2182 14.5422C3.10187 14.6586 3.02258 14.8067 2.99031 14.9681L2.50109 17.4142L4.9472 16.9249C5.10853 16.8927 5.2567 16.8134 5.37303 16.6971L13.7662 8.3039L11.6113 6.14908Z" fill="#6C6AEB"/>
</g>
<defs>
<clipPath id="clip0_1381_2801">
<rect width="20" height="20" fill="white"/>
</clipPath>
</defs>
</svg>
