<svg width="33" height="33" viewBox="0 0 33 33" fill="none" xmlns="http://www.w3.org/2000/svg">
<g id="education-learn-learning-svgrepo-com 1" opacity="0.2" clip-path="url(#clip0_1381_2825)">
<g id="School">
<path id="Vector" d="M30.9375 4.8125H2.0625C1.6828 4.8125 1.375 5.1203 1.375 5.5C1.375 5.8797 1.6828 6.1875 2.0625 6.1875H30.9375C31.3172 6.1875 31.625 5.8797 31.625 5.5C31.625 5.1203 31.3172 4.8125 30.9375 4.8125Z" fill="black"/>
<path id="Vector_2" d="M30.9375 23.375H2.0625C1.6828 23.375 1.375 23.6828 1.375 24.0625C1.375 24.4422 1.6828 24.75 2.0625 24.75H30.9375C31.3172 24.75 31.625 24.4422 31.625 24.0625C31.625 23.6828 31.3172 23.375 30.9375 23.375Z" fill="black"/>
<path id="Vector_3" d="M30.9375 14.4375H2.0625C1.6828 14.4375 1.375 14.7453 1.375 15.125C1.375 15.5047 1.6828 15.8125 2.0625 15.8125H30.9375C31.3172 15.8125 31.625 15.5047 31.625 15.125C31.625 14.7453 31.3172 14.4375 30.9375 14.4375Z" fill="black"/>
<path id="Vector_4" d="M32.3125 29.5625H0.6875C0.307804 29.5625 0 29.8703 0 30.25C0 30.6297 0.307804 30.9375 0.6875 30.9375H32.3125C32.6922 30.9375 33 30.6297 33 30.25C33 29.8703 32.6922 29.5625 32.3125 29.5625Z" fill="#010710"/>
<path id="Vector_5" d="M32.3125 28.875H0.6875C0.307804 28.875 0 29.1828 0 29.5625V30.25C0 30.6297 0.307804 30.9375 0.6875 30.9375H32.3125C32.6922 30.9375 33 30.6297 33 30.25V29.5625C33 29.1828 32.6922 28.875 32.3125 28.875Z" fill="black"/>
<path id="Vector_6" d="M4.46875 2.0625C4.74225 2.0625 5.00456 2.17115 5.19795 2.36455C5.39135 2.55794 5.5 2.82025 5.5 3.09375V28.875H3.4375V3.09375C3.4375 2.82025 3.54615 2.55794 3.73955 2.36455C3.93294 2.17115 4.19525 2.0625 4.46875 2.0625Z" fill="black"/>
<path id="Vector_7" d="M28.5312 2.0625C28.8048 2.0625 29.0671 2.17115 29.2605 2.36455C29.4539 2.55794 29.5625 2.82025 29.5625 3.09375V28.875H27.5V3.09375C27.5 2.82025 27.6086 2.55794 27.802 2.36455C27.9954 2.17115 28.2577 2.0625 28.5312 2.0625Z" fill="black"/>
<path id="Vector_8" d="M28.5312 2.0625C28.8048 2.0625 29.0671 2.17115 29.2605 2.36455C29.4539 2.55794 29.5625 2.82025 29.5625 3.09375V28.875H27.5V3.09375C27.5 2.82025 27.6086 2.55794 27.802 2.36455C27.9954 2.17115 28.2577 2.0625 28.5312 2.0625Z" fill="black"/>
<path id="Vector_9" d="M11 4.125C11 3.36561 10.3844 2.75 9.625 2.75C8.86561 2.75 8.25 3.36561 8.25 4.125V6.875C8.25 7.63439 8.86561 8.25 9.625 8.25C10.3844 8.25 11 7.63439 11 6.875V4.125Z" fill="#0A0701"/>
<path id="Vector_10" d="M11 4.125C11 3.36561 10.3844 2.75 9.625 2.75C8.86561 2.75 8.25 3.36561 8.25 4.125V6.875C8.25 7.63439 8.86561 8.25 9.625 8.25C10.3844 8.25 11 7.63439 11 6.875V4.125Z" fill="#070600"/>
<path id="Vector_11" d="M15.125 4.125C15.125 3.36561 14.5094 2.75 13.75 2.75C12.9906 2.75 12.375 3.36561 12.375 4.125V6.875C12.375 7.63439 12.9906 8.25 13.75 8.25C14.5094 8.25 15.125 7.63439 15.125 6.875V4.125Z" fill="#00060B"/>
<path id="Vector_12" d="M19.9375 13.75C19.9375 12.9906 19.3219 12.375 18.5625 12.375C17.8031 12.375 17.1875 12.9906 17.1875 13.75V16.5C17.1875 17.2594 17.8031 17.875 18.5625 17.875C19.3219 17.875 19.9375 17.2594 19.9375 16.5V13.75Z" fill="#020A15"/>
<path id="Vector_13" d="M15.8125 13.75C15.8125 12.9906 15.1969 12.375 14.4375 12.375C13.6781 12.375 13.0625 12.9906 13.0625 13.75V16.5C13.0625 17.2594 13.6781 17.875 14.4375 17.875C15.1969 17.875 15.8125 17.2594 15.8125 16.5V13.75Z" fill="#070600"/>
<path id="Vector_14" d="M24.0625 13.75C24.0625 12.9906 23.4469 12.375 22.6875 12.375C21.9281 12.375 21.3125 12.9906 21.3125 13.75V16.5C21.3125 17.2594 21.9281 17.875 22.6875 17.875C23.4469 17.875 24.0625 17.2594 24.0625 16.5V13.75Z" fill="#00060B"/>
<path id="Vector_15" d="M15.8125 22.6875C15.8125 21.9281 15.1969 21.3125 14.4375 21.3125C13.6781 21.3125 13.0625 21.9281 13.0625 22.6875V25.4375C13.0625 26.1969 13.6781 26.8125 14.4375 26.8125C15.1969 26.8125 15.8125 26.1969 15.8125 25.4375V22.6875Z" fill="#070600"/>
<path id="Vector_16" d="M11.6875 22.6875C11.6875 21.9281 11.0719 21.3125 10.3125 21.3125C9.55311 21.3125 8.9375 21.9281 8.9375 22.6875V25.4375C8.9375 26.1969 9.55311 26.8125 10.3125 26.8125C11.0719 26.8125 11.6875 26.1969 11.6875 25.4375V22.6875Z" fill="#00060B"/>
<path id="Vector_17" d="M19.9375 22.6875C19.9375 21.9281 19.3219 21.3125 18.5625 21.3125C17.8031 21.3125 17.1875 21.9281 17.1875 22.6875V25.4375C17.1875 26.1969 17.8031 26.8125 18.5625 26.8125C19.3219 26.8125 19.9375 26.1969 19.9375 25.4375V22.6875Z" fill="#01070F"/>
<path id="Vector_18" d="M6.1875 4.8125H5.5V6.1875H6.1875V4.8125Z" fill="black"/>
<path id="Vector_19" d="M6.1875 14.4375H5.5V15.8125H6.1875V14.4375Z" fill="black"/>
<path id="Vector_20" d="M6.1875 23.375H5.5V24.75H6.1875V23.375Z" fill="black"/>
</g>
</g>
<defs>
<clipPath id="clip0_1381_2825">
<rect width="33" height="33" fill="white"/>
</clipPath>
</defs>
</svg>
