<svg width="45" height="45" viewBox="0 0 45 45" fill="none" xmlns="http://www.w3.org/2000/svg">
<g id="briefcase-svgrepo-com 1" opacity="0.2">
<path id="Vector" d="M37.0552 38.5269H7.9458C7.35254 38.5269 6.86914 38.0435 6.86914 37.4502V22.0474H38.1274V37.4458C38.1318 38.0435 37.6484 38.5269 37.0552 38.5269Z" fill="black"/>
<path id="Vector_2" d="M37.002 38.7773H7.99805C7.23779 38.7773 6.61816 38.1577 6.61816 37.3975V21.7969H38.3862V37.3975C38.3818 38.1577 37.7622 38.7773 37.002 38.7773ZM7.12354 22.3022V37.3975C7.12354 37.8809 7.51465 38.272 7.99805 38.272H37.002C37.4853 38.272 37.8765 37.8809 37.8765 37.3975V22.3022H7.12354Z" fill="#333336"/>
<path id="Vector_3" d="M21.3442 36.7339H9.14062C8.86816 36.7339 8.64844 36.5142 8.64844 36.2417V22.9307H21.8408V36.2373C21.8408 36.5098 21.6211 36.7339 21.3442 36.7339Z" fill="black"/>
<path id="Vector_4" d="M21.3223 36.9844H9.1626C8.73633 36.9844 8.39355 36.6372 8.39355 36.2153V22.6758H22.0957V36.2153C22.0957 36.6416 21.7485 36.9844 21.3223 36.9844ZM8.89893 23.1812V36.2153C8.89893 36.3604 9.01758 36.479 9.1626 36.479H21.3223C21.4673 36.479 21.5859 36.3604 21.5859 36.2153V23.1812H8.89893Z" fill="#333336"/>
<path id="Vector_5" d="M35.7588 36.7339H23.5508C23.2783 36.7339 23.0586 36.5142 23.0586 36.2417V22.9307H36.2554V36.2373C36.251 36.5098 36.0312 36.7339 35.7588 36.7339Z" fill="black"/>
<path id="Vector_6" d="M35.7363 36.9844H23.5767C23.1504 36.9844 22.8076 36.6372 22.8076 36.2153V22.6758H36.5098V36.2153C36.5054 36.6416 36.1582 36.9844 35.7363 36.9844ZM23.313 23.1812V36.2153C23.313 36.3604 23.4316 36.479 23.5767 36.479H35.7363C35.8813 36.479 36 36.3604 36 36.2153V23.1812H23.313Z" fill="#333336"/>
<path id="Vector_7" d="M35.4292 25.9058H9.57178C8.07764 25.9058 6.86914 24.6973 6.86914 23.2031V15.2271C6.86914 15.0161 7.04053 14.8447 7.25146 14.8447H37.7407C37.9517 14.8447 38.123 15.0161 38.123 15.2271V23.2031C38.1318 24.6973 36.9189 25.9058 35.4292 25.9058Z" fill="#222222"/>
<path id="Vector_8" d="M35.3013 26.1606H9.69873C7.99805 26.1606 6.61816 24.7764 6.61816 23.0801V15.2446C6.61816 14.8843 6.9126 14.5898 7.27295 14.5898H37.7271C38.0874 14.5898 38.3818 14.8843 38.3818 15.2446V23.0757C38.3818 24.7764 37.002 26.1606 35.3013 26.1606ZM7.27295 15.0952C7.18945 15.0952 7.12354 15.1611 7.12354 15.2446V23.0757C7.12354 24.4951 8.2793 25.6509 9.69873 25.6509H35.3013C36.7207 25.6509 37.8765 24.4951 37.8765 23.0757V15.2446C37.8765 15.1611 37.8106 15.0952 37.7271 15.0952H7.27295Z" fill="#333336"/>
<path id="Vector_9" d="M17.459 29.6631H13.0249C12.9897 29.6631 12.959 29.6323 12.959 29.5972V23.8403C12.959 23.8052 12.9897 23.7744 13.0249 23.7744H17.459C17.4941 23.7744 17.5249 23.8052 17.5249 23.8403V29.5972C17.5249 29.6323 17.4985 29.6631 17.459 29.6631Z" fill="#D5D9CF"/>
<path id="Vector_10" d="M17.4595 29.9136H13.0298C12.854 29.9136 12.709 29.7686 12.709 29.5928V23.8447C12.709 23.6689 12.854 23.5239 13.0298 23.5239H17.4595C17.6353 23.5239 17.7803 23.6689 17.7803 23.8447V29.5928C17.7803 29.773 17.6353 29.9136 17.4595 29.9136ZM13.2144 29.4082H17.2749V24.0293H13.2144V29.4082Z" fill="#333336"/>
<path id="Vector_11" d="M17.688 26.6528H12.7969C12.5771 26.6528 12.4014 26.4771 12.4014 26.2573V25.8311C12.4014 25.6113 12.5771 25.4355 12.7969 25.4355H17.688C17.9077 25.4355 18.0835 25.6113 18.0835 25.8311V26.2573C18.0835 26.4727 17.9077 26.6528 17.688 26.6528Z" fill="black"/>
<path id="Vector_12" d="M17.6704 26.9033H12.8145C12.4453 26.9033 12.1465 26.6045 12.1465 26.2354V25.8442C12.1465 25.4751 12.4453 25.1763 12.8145 25.1763H17.6704C18.0396 25.1763 18.3384 25.4751 18.3384 25.8442V26.2354C18.3384 26.6045 18.0396 26.9033 17.6704 26.9033ZM12.8145 25.686C12.7266 25.686 12.6519 25.7563 12.6519 25.8486V26.2397C12.6519 26.3276 12.7222 26.4023 12.8145 26.4023H17.6704C17.7583 26.4023 17.833 26.332 17.833 26.2397V25.8486C17.833 25.7607 17.7627 25.686 17.6704 25.686H12.8145ZM15.2446 28.7402C15.104 28.7402 14.9897 28.626 14.9897 28.4854V27.7998C14.9897 27.6592 15.104 27.5449 15.2446 27.5449C15.3853 27.5449 15.4995 27.6592 15.4995 27.7998V28.4854C15.4951 28.626 15.3809 28.7402 15.2446 28.7402Z" fill="#333336"/>
<path id="Vector_13" d="M31.8027 29.6631H27.3687C27.3335 29.6631 27.3027 29.6323 27.3027 29.5972V23.8403C27.3027 23.8052 27.3335 23.7744 27.3687 23.7744H31.8027C31.8379 23.7744 31.8687 23.8052 31.8687 23.8403V29.5972C31.8687 29.6323 31.8423 29.6631 31.8027 29.6631Z" fill="#D5D9CF"/>
<path id="Vector_14" d="M31.8032 29.9136H27.3735C27.1978 29.9136 27.0527 29.7686 27.0527 29.5928V23.8447C27.0527 23.6689 27.1978 23.5239 27.3735 23.5239H31.8032C31.979 23.5239 32.124 23.6689 32.124 23.8447V29.5928C32.124 29.773 31.979 29.9136 31.8032 29.9136ZM27.5581 29.4082H31.6187V24.0293H27.5581V29.4082Z" fill="#333336"/>
<path id="Vector_15" d="M32.0361 26.6528H27.1406C26.9209 26.6528 26.7451 26.4771 26.7451 26.2573V25.8311C26.7451 25.6113 26.9209 25.4355 27.1406 25.4355H32.0361C32.2559 25.4355 32.4316 25.6113 32.4316 25.8311V26.2573C32.4316 26.4727 32.2515 26.6528 32.0361 26.6528Z" fill="black"/>
<path id="Vector_16" d="M32.0142 26.9033H27.1582C26.7891 26.9033 26.4902 26.6045 26.4902 26.2354V25.8442C26.4902 25.4751 26.7891 25.1763 27.1582 25.1763H32.0142C32.3833 25.1763 32.6821 25.4751 32.6821 25.8442V26.2354C32.6821 26.6045 32.3833 26.9033 32.0142 26.9033ZM27.1582 25.686C27.0703 25.686 26.9956 25.7563 26.9956 25.8486V26.2397C26.9956 26.3276 27.0659 26.4023 27.1582 26.4023H32.0142C32.1021 26.4023 32.1768 26.332 32.1768 26.2397V25.8486C32.1768 25.7607 32.1064 25.686 32.0142 25.686H27.1582Z" fill="#333336"/>
<path id="Vector_17" d="M29.5889 28.7402C29.4482 28.7402 29.334 28.626 29.334 28.4854V27.7998C29.334 27.6592 29.4482 27.5449 29.5889 27.5449C29.7295 27.5449 29.8437 27.6592 29.8437 27.7998V28.4854C29.8394 28.626 29.7295 28.7402 29.5889 28.7402Z" fill="#333336"/>
<path id="Vector_18" d="M29.1927 12.0059C29.6717 11.6587 29.8079 11.0083 29.5091 10.4985C28.5467 8.85498 26.1693 5.59424 22.4119 5.59424C18.3426 5.59424 16.1102 8.87695 15.2489 10.5161C14.9852 11.0215 15.1346 11.6455 15.596 11.9795L15.6048 11.9839C16.1673 12.3926 16.9583 12.208 17.2923 11.5972C18.1229 10.0767 19.8499 7.6377 22.4119 7.6377C24.8993 7.6377 26.6746 10.1162 27.5272 11.6367C27.8612 12.2344 28.639 12.4058 29.1927 12.0059Z" fill="#222222"/>
<path id="Vector_19" d="M28.5254 12.4761C28.4243 12.4761 28.3232 12.4673 28.2266 12.4453C27.8398 12.3618 27.5059 12.1113 27.3081 11.7642C26.4951 10.3184 24.7813 7.89258 22.4126 7.89258C19.9648 7.89258 18.2905 10.292 17.5127 11.7202C17.3193 12.0762 16.981 12.3311 16.5854 12.4189C16.1943 12.5068 15.7813 12.4233 15.4561 12.1904L15.4473 12.186C14.8848 11.7817 14.7046 11.0127 15.0254 10.3975C15.478 9.53613 16.2646 8.29248 17.46 7.25098C18.9102 5.98535 20.5757 5.34375 22.4126 5.34375C24.1133 5.34375 25.7129 5.98096 27.1763 7.24219C28.3804 8.2793 29.2285 9.51856 29.7295 10.3755C30.0942 10.9995 29.9272 11.7905 29.3428 12.2124C29.1011 12.3838 28.8154 12.4761 28.5254 12.4761ZM22.4126 7.38721C25.0405 7.38721 26.8818 9.97559 27.7476 11.5137C27.8706 11.7334 28.0859 11.8916 28.332 11.9487C28.5781 12.0015 28.8374 11.9487 29.0439 11.7993C29.4175 11.5312 29.523 11.0259 29.29 10.626C28.8066 9.8042 27.9937 8.61328 26.8423 7.62012C25.4756 6.44238 23.9858 5.84473 22.4082 5.84473C20.6987 5.84473 19.1431 6.44238 17.7896 7.62891C16.6558 8.61768 15.9043 9.80859 15.4692 10.6304C15.2627 11.0215 15.3813 11.5137 15.7417 11.7729L15.7505 11.7773C15.957 11.9268 16.2207 11.9795 16.4712 11.9268C16.7217 11.8696 16.9414 11.707 17.0645 11.4785C17.9038 9.94922 19.7012 7.38721 22.4126 7.38721Z" fill="#333336"/>
<path id="Vector_20" d="M16.5278 10.8809L14.7656 13.7549L16.5278 10.8809Z" fill="#222222"/>
<path id="Vector_21" d="M14.5479 13.6203L16.3107 10.7476L16.7414 11.0118L14.9786 13.8846L14.5479 13.6203Z" fill="#333336"/>
<path id="Vector_22" d="M28.3096 10.8809L30.0718 13.7549L28.3096 10.8809Z" fill="#222222"/>
<path id="Vector_23" d="M28.0918 11.0123L28.5225 10.748L30.2854 13.6208L29.8546 13.8851L28.0918 11.0123Z" fill="#333336"/>
<path id="Vector_24" d="M15.0732 14.7744H12.0938C11.8257 14.7744 11.6104 14.5591 11.6104 14.291V13.7681C11.6104 13.5 11.8257 13.2847 12.0938 13.2847H15.0732C15.3413 13.2847 15.5566 13.5 15.5566 13.7681V14.291C15.5566 14.5591 15.3369 14.7744 15.0732 14.7744Z" fill="#D5D9CF"/>
<path id="Vector_25" d="M15.0464 15.0293H12.1108C11.6934 15.0293 11.3506 14.6865 11.3506 14.269V13.79C11.3506 13.3726 11.6934 13.0298 12.1108 13.0298H15.0464C15.4639 13.0298 15.8066 13.3726 15.8066 13.79V14.269C15.8066 14.6865 15.4683 15.0293 15.0464 15.0293ZM12.1152 13.5396C11.9746 13.5396 11.8604 13.6538 11.8604 13.7944V14.2734C11.8604 14.4141 11.9746 14.5283 12.1152 14.5283H15.0508C15.1914 14.5283 15.3057 14.4141 15.3057 14.2734V13.7944C15.3057 13.6538 15.1914 13.5396 15.0508 13.5396H12.1152Z" fill="#333336"/>
<path id="Vector_26" d="M32.7393 14.7744H29.7598C29.4917 14.7744 29.2764 14.5591 29.2764 14.291V13.7681C29.2764 13.5 29.4917 13.2847 29.7598 13.2847H32.7393C33.0073 13.2847 33.2227 13.5 33.2227 13.7681V14.291C33.2227 14.5591 33.0073 14.7744 32.7393 14.7744Z" fill="#D5D9CF"/>
<path id="Vector_27" d="M32.7134 15.0293H29.7778C29.3604 15.0293 29.0176 14.6865 29.0176 14.269V13.79C29.0176 13.3726 29.3604 13.0298 29.7778 13.0298H32.7134C33.1309 13.0298 33.4736 13.3726 33.4736 13.79V14.269C33.4736 14.6865 33.1353 15.0293 32.7134 15.0293ZM29.7822 13.5396C29.6416 13.5396 29.5273 13.6538 29.5273 13.7944V14.2734C29.5273 14.4141 29.6416 14.5283 29.7822 14.5283H32.7178C32.8584 14.5283 32.9727 14.4141 32.9727 14.2734V13.7944C32.9727 13.6538 32.8584 13.5396 32.7178 13.5396H29.7822Z" fill="#333336"/>
</g>
</svg>
