<svg xmlns="http://www.w3.org/2000/svg" width="40" height="40" viewBox="0 0 40 40" fill="none">
<path d="M5 1.875C5 0.839469 5.83947 0 6.875 0H9.375C10.4106 0 11.25 0.839469 11.25 1.875C11.25 2.91053 10.4106 3.75 9.375 3.75H6.875C5.83947 3.75 5 2.91053 5 1.875Z" fill="#EAAFB0"/>
<path d="M18.75 1.875C18.75 0.839469 19.5894 0 20.625 0H23.125C24.1606 0 25 0.839469 25 1.875C25 2.91053 24.1606 3.75 23.125 3.75H20.625C19.5894 3.75 18.75 2.91053 18.75 1.875Z" fill="#EAAFB0"/>
<path d="M25.625 18.125C25.625 20.5412 27.5838 22.5 30 22.5C32.4162 22.5 34.375 20.5412 34.375 18.125C34.375 15.7088 32.4162 13.75 30 13.75C27.5838 13.75 25.625 15.7088 25.625 18.125Z" fill="#EAAFB0"/>
<path d="M7.5 3.75V13.75C7.5 17.6817 10.5253 20.9067 14.375 21.2243V31.25C14.375 35.7373 18.0127 39.375 22.5 39.375C26.9873 39.375 30.625 35.7373 30.625 31.25V22.4557C30.4209 22.4849 30.2122 22.5 30 22.5C29.7878 22.5 29.5791 22.4849 29.375 22.4557V31.25C29.375 35.0469 26.2969 38.125 22.5 38.125C18.7031 38.125 15.625 35.0469 15.625 31.25V21.2243C19.4747 20.9067 22.5 17.6817 22.5 13.75V3.75H21.25V13.75C21.25 17.2017 18.4517 20 15 20C11.5483 20 8.75 17.2017 8.75 13.75V3.75H7.5Z" fill="#124E3B"/>
<path fill-rule="evenodd" clip-rule="evenodd" d="M27.5 18.125C27.5 19.5057 28.6193 20.625 30 20.625C31.3807 20.625 32.5 19.5057 32.5 18.125C32.5 16.7443 31.3807 15.625 30 15.625C28.6193 15.625 27.5 16.7443 27.5 18.125ZM30 19.375C29.3096 19.375 28.75 18.8154 28.75 18.125C28.75 17.4346 29.3096 16.875 30 16.875C30.6904 16.875 31.25 17.4346 31.25 18.125C31.25 18.8154 30.6904 19.375 30 19.375Z" fill="#124E3B"/>
</svg>