<svg xmlns="http://www.w3.org/2000/svg" width="38" height="38" viewBox="0 0 38 38" fill="none">
<g clip-path="url(#clip0_1381_2284)">
<path d="M19.0556 6.44287C11.0612 6.44287 4.55713 12.9469 4.55713 20.9413C4.55713 28.9358 11.0612 35.4398 19.0556 35.4398C27.0501 35.4398 33.554 28.9358 33.554 20.9413C33.554 12.9468 27.0501 6.44287 19.0556 6.44287ZM19.0556 34.311C11.6836 34.311 5.68592 28.3134 5.68592 20.9413C5.68592 13.5692 11.6836 7.57167 19.0556 7.57167C26.4277 7.57167 32.4252 13.5692 32.4252 20.9413C32.4252 28.3134 26.4277 34.311 19.0556 34.311Z" fill="#121212"/>
<path d="M19.0555 11.5737C13.8903 11.5737 9.68799 15.7759 9.68799 20.9411C9.68799 21.7747 9.79768 22.6018 10.014 23.3992L11.1033 23.1036C10.913 22.4026 10.8166 21.6749 10.8166 20.941C10.8166 16.3983 14.5125 12.7025 19.0553 12.7025C20.3783 12.7025 21.6414 13.0062 22.8096 13.6055L23.3247 12.601C21.9957 11.9194 20.5593 11.5737 19.0555 11.5737Z" fill="#121212"/>
<path d="M11.6348 24.5244L10.6187 25.016C11.2108 26.2401 12.0827 27.3427 13.1399 28.2046L13.8532 27.3297C12.9229 26.5711 12.1557 25.6011 11.6348 24.5244Z" fill="#121212"/>
<path d="M24.7683 13.5171L24.0794 14.4111C26.1224 15.9855 27.2941 18.3656 27.2941 20.9412C27.2941 25.484 23.5983 29.1799 19.0555 29.1799C17.4382 29.1799 15.873 28.7116 14.5288 27.826L13.9077 28.7686C15.4368 29.7761 17.2168 30.3087 19.0555 30.3087C24.2207 30.3087 28.4229 26.1065 28.4229 20.9412C28.4229 18.0128 27.0908 15.3068 24.7683 13.5171Z" fill="#121212"/>
<path d="M4.74593 3.56689V10.103H3.50172V3.56689H2.37293V10.103H1.1288V3.56689H0V10.103V11.0761V11.2318H0.00423048C0.0754806 12.5887 1.07194 13.7042 2.373 13.9584V34.8755H3.5018V13.9584C4.80278 13.7041 5.79924 12.5887 5.87057 11.2317H5.8748V11.076V10.1029V3.56689H4.74593ZM2.93736 12.8846C1.99255 12.8846 1.21467 12.1562 1.13547 11.2317H4.73932C4.65998 12.1562 3.88209 12.8846 2.93736 12.8846Z" fill="#121212"/>
<path d="M37.0597 3.13503C35.3908 4.15413 34.354 6.00196 34.354 7.95741V20.3083H36.8714V34.8752H38.0002V20.3082V13.4487V2.56006L37.0597 3.13503ZM36.8715 13.4486V19.1795H35.4828V7.95733C35.4828 6.72352 35.9985 5.54336 36.8715 4.69942V13.4486Z" fill="#121212"/>
</g>
<defs>
<clipPath id="clip0_1381_2284">
<rect width="38" height="38" fill="white"/>
</clipPath>
</defs>
</svg>