<svg width="40" height="40" viewBox="0 0 40 40" fill="none" xmlns="http://www.w3.org/2000/svg">
<g id="target-svgrepo-com 1" opacity="0.2" clip-path="url(#clip0_1381_2876)">
<g id="Group">
<path id="Vector" d="M20 23.75C22.0711 23.75 23.75 22.0711 23.75 20C23.75 17.9289 22.0711 16.25 20 16.25C17.9289 16.25 16.25 17.9289 16.25 20C16.25 22.0711 17.9289 23.75 20 23.75Z" fill="black"/>
<path id="Vector_2" d="M20 12.5C15.8581 12.5 12.5 15.8581 12.5 20C12.5 24.1419 15.8581 27.5 20 27.5C24.1419 27.5 27.5 24.1419 27.5 20C27.5 15.8581 24.1419 12.5 20 12.5ZM20 25C17.2387 25 15 22.7613 15 20C15 17.2387 17.2387 15 20 15C22.7613 15 25 17.2387 25 20C25 22.7613 22.7613 25 20 25Z" fill="white"/>
<path id="Vector_3" d="M20 8.75C13.7869 8.75 8.75 13.7869 8.75 20C8.75 26.2131 13.7869 31.25 20 31.25C26.2131 31.25 31.25 26.2131 31.25 20C31.25 13.7869 26.2131 8.75 20 8.75ZM20 28.75C15.1675 28.75 11.25 24.8325 11.25 20C11.25 15.1675 15.1675 11.25 20 11.25C24.8325 11.25 28.75 15.1675 28.75 20C28.75 24.8325 24.8325 28.75 20 28.75Z" fill="white"/>
<path id="Vector_4" d="M20 5C11.7156 5 5 11.7156 5 20C5 28.2844 11.7156 35 20 35C28.2844 35 35 28.2844 35 20C35 11.7156 28.2844 5 20 5ZM20 32.5C13.0963 32.5 7.5 26.9037 7.5 20C7.5 13.0963 13.0963 7.5 20 7.5C26.9037 7.5 32.5 13.0963 32.5 20C32.5 26.9037 26.9037 32.5 20 32.5Z" fill="white"/>
<path id="Vector_5" d="M20 1.25C9.645 1.25 1.25 9.645 1.25 20C1.25 30.355 9.645 38.75 20 38.75C30.355 38.75 38.75 30.355 38.75 20C38.75 9.645 30.355 1.25 20 1.25ZM20 36.25C11.0256 36.25 3.75 28.9744 3.75 20C3.75 11.0256 11.0256 3.75 20 3.75C28.9744 3.75 36.25 11.0256 36.25 20C36.25 28.9744 28.9744 36.25 20 36.25Z" fill="white"/>
<path id="Vector_6" d="M20 0C14.7019 0 9.88875 2.06375 6.31063 5.42687L5.625 4.74125V3.125C5.625 3.02 5.59313 2.92625 5.5475 2.83938C5.53875 2.8 5.51687 2.7575 5.46688 2.7075L2.9425 0.183125H2.94187C2.82875 0.069375 2.6725 0 2.5 0C2.15438 0 1.875 0.279375 1.875 0.625V1.875H0.625C0.279375 1.875 0 2.15438 0 2.5C0 2.6725 0.07 2.82875 0.183125 2.94187V2.9425L2.6825 5.44125L2.68313 5.44187L2.70875 5.4675C2.75875 5.5175 2.80063 5.53937 2.84 5.54812C2.92625 5.59312 3.02063 5.625 3.125 5.625H4.74125L5.42687 6.31063C2.06375 9.88875 0 14.7019 0 20C0 31.0456 8.95437 40 20 40C31.0456 40 40 31.0456 40 20C40 8.95437 31.0456 0 20 0ZM4.375 4.375H3.38438L2.13625 3.1275L3.125 3.125L3.1325 2.14125L4.375 3.38375V4.375ZM20 38.75C9.645 38.75 1.25 30.355 1.25 20C1.25 15.0475 3.17375 10.5456 6.31063 7.19438L8.07812 8.96187C5.39313 11.8606 3.75 15.7375 3.75 20C3.75 28.9744 11.0256 36.25 20 36.25C28.9744 36.25 36.25 28.9744 36.25 20C36.25 11.0256 28.9744 3.75 20 3.75C15.7375 3.75 11.8606 5.39313 8.96187 8.07812L7.19438 6.31063C10.5462 3.17375 15.0469 1.25 20 1.25C30.355 1.25 38.75 9.645 38.75 20C38.75 30.355 30.355 38.75 20 38.75ZM10.7406 11.6244C8.73312 13.8413 7.5 16.7731 7.5 20C7.5 26.9037 13.0963 32.5 20 32.5C26.9037 32.5 32.5 26.9037 32.5 20C32.5 13.0963 26.9037 7.5 20 7.5C16.7731 7.5 13.8413 8.73312 11.6244 10.7406L9.84562 8.9625C12.5175 6.5025 16.0825 5 20 5C28.2844 5 35 11.7156 35 20C35 28.2844 28.2844 35 20 35C11.7156 35 5 28.2844 5 20C5 16.0825 6.50312 12.5169 8.96187 9.84625L10.7406 11.6244ZM13.3919 14.2756C12.0612 15.8106 11.25 17.8088 11.25 20C11.25 24.8325 15.1675 28.75 20 28.75C24.8325 28.75 28.75 24.8325 28.75 20C28.75 15.1675 24.8325 11.25 20 11.25C17.8088 11.25 15.8106 12.0612 14.2756 13.3919L12.5081 11.6244C14.4981 9.8425 17.1187 8.75 20 8.75C26.2131 8.75 31.25 13.7869 31.25 20C31.25 26.2131 26.2131 31.25 20 31.25C13.7869 31.25 8.75 26.2131 8.75 20C8.75 17.1187 9.8425 14.4981 11.6244 12.5081L13.3919 14.2756ZM16.0538 16.9375C15.3956 17.7844 15 18.8444 15 20C15 22.7612 17.2388 25 20 25C22.7612 25 25 22.7612 25 20C25 17.2388 22.7612 15 20 15C18.8444 15 17.7844 15.3956 16.9375 16.0538L15.16 14.2762C16.4669 13.17 18.1544 12.5 20 12.5C24.1419 12.5 27.5 15.8581 27.5 20C27.5 24.1419 24.1419 27.5 20 27.5C15.8581 27.5 12.5 24.1419 12.5 20C12.5 18.1544 13.17 16.4669 14.2762 15.16L16.0538 16.9375ZM19.5581 20.4419C19.8025 20.6863 20.1975 20.6863 20.4419 20.4419C20.6863 20.1975 20.6863 19.8025 20.4419 19.5581L17.8294 16.9456C18.4425 16.5094 19.19 16.25 20 16.25C22.0706 16.25 23.75 17.9294 23.75 20C23.75 22.0706 22.0706 23.75 20 23.75C17.9294 23.75 16.25 22.0706 16.25 20C16.25 19.1906 16.5094 18.4425 16.9456 17.8294L19.5581 20.4419Z" fill="black"/>
<path id="Vector_7" d="M4.37547 4.37486H3.38484L2.13672 3.12736L3.12547 3.12486L3.13297 2.14111L4.37547 3.38361V4.37486Z" fill="#FDFDFD"/>
</g>
</g>
<defs>
<clipPath id="clip0_1381_2876">
<rect width="40" height="40" fill="white"/>
</clipPath>
</defs>
</svg>
