<svg width="34" height="34" viewBox="0 0 34 34" fill="none" xmlns="http://www.w3.org/2000/svg">
<g id="presentation-svgrepo-com 2" clip-path="url(#clip0_1381_2807)">
<path id="Vector" d="M33.0567 0H8.54722C8.02517 0 7.60352 0.421654 7.60352 0.943701V5.62874C7.60352 6.15079 8.02517 6.57244 8.54722 6.57244C9.06926 6.57244 9.49092 6.15079 9.49092 5.62874V1.8874H32.113V17.4618H17.2212C16.6992 17.4618 16.2775 17.8835 16.2775 18.4055C16.2775 18.9276 16.6992 19.3492 17.2212 19.3492H33.0567C33.5787 19.3492 34.0004 18.9276 34.0004 18.4055V0.943701C34.0004 0.421654 33.5787 0 33.0567 0Z" fill="black"/>
<path id="Vector_2" d="M17.2205 17.4616H32.1123V1.88721H9.49023V5.62854" fill="white"/>
<path id="Vector_3" d="M30.2185 3.78174H11.3779V6.92741C13.8275 8.04512 15.5409 10.5148 15.5409 13.3794C15.5409 14.1491 15.4138 14.8853 15.1862 15.5747H30.2252V3.78174H30.2185Z" fill="#0E0A01"/>
<g id="Group">
<path id="Vector_4" d="M28.7326 6.71309H14.8314C14.3093 6.71309 13.8877 6.29143 13.8877 5.76938C13.8877 5.24734 14.3093 4.82568 14.8314 4.82568H28.7326C29.2546 4.82568 29.6763 5.24734 29.6763 5.76938C29.6763 6.29143 29.2546 6.71309 28.7326 6.71309Z" fill="black"/>
<path id="Vector_5" d="M28.7329 10.6218H18.6869C18.1648 10.6218 17.7432 10.2001 17.7432 9.67808C17.7432 9.15603 18.1648 8.73438 18.6869 8.73438H28.7396C29.2617 8.73438 29.6833 9.15603 29.6833 9.67808C29.6833 10.2001 29.255 10.6218 28.7329 10.6218Z" fill="black"/>
<path id="Vector_6" d="M28.7329 14.5236H18.6869C18.1648 14.5236 17.7432 14.102 17.7432 13.5799C17.7432 13.0579 18.1648 12.6362 18.6869 12.6362H28.7396C29.2617 12.6362 29.6833 13.0579 29.6833 13.5799C29.6766 14.102 29.255 14.5236 28.7329 14.5236Z" fill="black"/>
</g>
<path id="Vector_7" d="M12.382 21.7186H12.0273L9.29661 27.595C8.95527 28.3312 7.91117 28.3312 7.56984 27.595L4.83243 21.7119H4.4844C3.05212 21.7119 1.88086 22.8832 1.88086 24.3155V25.0048H4.68519C5.20724 25.0048 5.62889 25.4265 5.62889 25.9485C5.62889 26.4706 5.20724 26.8922 4.68519 26.8922H1.88755V28.6592H3.27968C3.80173 28.6592 4.22338 29.0808 4.22338 29.6029C4.22338 30.1249 3.80173 30.5466 3.27968 30.5466H1.88755V32.106H14.9789V24.3155C14.9789 22.8832 13.8143 21.7186 12.382 21.7186Z" fill="#010B11"/>
<path id="Vector_8" d="M12.3819 19.8311C12.3819 19.8311 10.7287 20.0452 10.5748 20.3799L8.43307 24.9712L6.29803 20.3799C6.14409 20.0452 4.48425 19.8311 4.48425 19.8311C2.00787 19.8311 0 21.8389 0 24.3153V33.0496C0 33.5783 0.428346 34 0.950394 34H15.9157C16.4445 34 16.8661 33.5716 16.8661 33.0496V24.322C16.8661 21.8523 14.8516 19.8311 12.3819 19.8311ZM14.9787 32.1126H1.8874V30.5531H3.27953C3.80157 30.5531 4.22323 30.1314 4.22323 29.6094C4.22323 29.0874 3.80157 28.6657 3.27953 28.6657H1.8874V26.8988H4.69173C5.21378 26.8988 5.63543 26.4771 5.63543 25.9551C5.63543 25.433 5.21378 25.0114 4.69173 25.0114H1.8874V24.322C1.8874 22.8897 3.05866 21.7185 4.49094 21.7185H4.83898L7.57638 27.6015C7.91772 28.3377 8.96181 28.3377 9.30315 27.6015L12.0339 21.7252H12.3886C13.8209 21.7252 14.9854 22.8897 14.9854 24.322V32.1126H14.9787Z" fill="black"/>
<path id="Vector_9" d="M8.43297 10.0527C6.59911 10.0527 5.11328 11.5453 5.11328 13.3724C5.11328 15.1996 6.6058 16.6921 8.43297 16.6921C10.2601 16.6921 11.7527 15.1996 11.7527 13.3724C11.7527 11.5453 10.2668 10.0527 8.43297 10.0527Z" fill="#010B11"/>
<path id="Vector_10" d="M8.43351 8.16553C5.56225 8.16553 3.21973 10.5014 3.21973 13.3793C3.21973 16.2573 5.55555 18.5931 8.43351 18.5931C11.3115 18.5931 13.6473 16.2573 13.6473 13.3793C13.6473 10.5014 11.3115 8.16553 8.43351 8.16553ZM8.43351 16.699C6.59965 16.699 5.11382 15.2065 5.11382 13.3793C5.11382 11.5521 6.60634 10.0596 8.43351 10.0596C10.2607 10.0596 11.7532 11.5521 11.7532 13.3793C11.7532 15.2065 10.2674 16.699 8.43351 16.699Z" fill="black"/>
</g>
<defs>
<clipPath id="clip0_1381_2807">
<rect width="34" height="34" fill="white"/>
</clipPath>
</defs>
</svg>
