<svg xmlns="http://www.w3.org/2000/svg" width="173" height="173" viewBox="0 0 173 173" fill="none">
  <g clip-path="url(#clip0_1381_2336)">
    <path fill-rule="evenodd" clip-rule="evenodd" d="M23.7229 85.9914C26.5617 83.1668 30.9392 82.0074 36.6589 81.5296L31.0868 56.789C30.5458 55.4188 31.15 54.8567 32.3937 54.7231L38.3453 55.1939C39.2868 55.4188 40.0598 55.8825 40.5446 56.7327L56.0874 78.5995L88.5502 77.3066L76.7807 16.3088C76.4012 14.8473 76.9353 14.1587 78.5935 14.3976L88.0302 15.4586L122.13 76.2175L151.122 75.2478C159.891 75.8802 166.278 78.6276 168.92 82.9981C170.375 85.4082 170.48 86.666 169.265 89.0761C166.868 93.7909 160.292 96.7702 151.122 97.4377L122.13 96.4681L88.0302 157.227L78.5935 158.288C76.9423 158.52 76.4083 157.831 76.7807 156.377L88.5361 95.379L56.0804 94.079L40.5376 115.946C40.0598 116.789 39.2939 117.26 38.3382 117.485L32.3867 117.955C31.15 117.829 30.5387 117.26 31.0798 115.89L36.6519 91.149C30.9111 90.6641 26.5336 89.5047 23.6878 86.659C23.4349 86.392 23.47 86.2444 23.7229 85.9914Z" fill="#121212"/>
  </g>
  <defs>
    <clipPath id="clip0_1381_2336">
      <rect width="122.107" height="122.107" fill="white" transform="translate(86.3438) rotate(45)"/>
    </clipPath>
  </defs>
</svg>