<svg xmlns="http://www.w3.org/2000/svg" width="173" height="173" viewBox="0 0 173 173" fill="none">
  <g clip-path="url(#clip0_1381_2339)">
    <path fill-rule="evenodd" clip-rule="evenodd" d="M148.963 86.8614C146.117 89.6785 141.736 90.8262 136.015 91.2888L141.521 116.044C142.059 117.416 141.453 117.976 140.209 118.106L134.259 117.62C133.318 117.392 132.546 116.927 132.064 116.075L116.579 94.167L84.113 95.3734L95.7198 156.402C96.0953 157.865 95.5595 158.552 93.9019 158.309L84.468 157.223L50.5302 96.3729L21.536 97.2653C12.7685 96.6095 6.38872 93.8451 3.75839 89.4675C2.31032 87.0536 2.20827 85.7955 3.4303 83.3887C5.83893 78.6802 12.4237 75.7185 21.5952 75.0754L50.5842 76.1224L84.846 15.4547L94.2855 14.4188C95.9374 14.1914 96.4696 14.8814 96.0933 16.3349L84.1752 77.3011L116.627 78.6875L132.228 56.8623C132.709 56.0204 133.476 55.5517 134.432 55.3294L140.385 54.8745C141.621 55.0043 142.231 55.575 141.686 56.9438L136.048 81.6694C141.787 82.1696 146.162 83.3406 149 86.194C149.252 86.4616 149.217 86.6091 148.963 86.8614Z" fill="#121212"/>
  </g>
  <defs>
    <clipPath id="clip0_1381_2339">
      <rect width="122.107" height="122.107" fill="white" transform="translate(86.1133 172.686) rotate(-134.847)"/>
    </clipPath>
  </defs>
</svg>